# xmcd CD database file
#
# Track frame offsets:
#	150
#	23127
#	44335
#	67317
#
# Disc length: 1176 seconds
#
# Revision: 1
# Processed by: cddbd v1.5.1PL0 Copyright (c) Steve Scherf et al.
# Submitted via: CDex 1.51
#
DISCID=34049604
DTITLE=ZARD - もう探さない
DYEAR=1991
DGENRE=JPop
TTITLE0=もう探さない
TTITLE1=こんなに愛しても
TTITLE2=もう探さない (オリジナル・カラオケ)
TTITLE3=こんなに愛しても (オリジナル・カラオケ)
EXTD=YEAR: 1991
EXTT0=
EXTT1=
EXTT2=
EXTT3=
PLAYORDER=
